<?xml version="1.0" encoding="utf-8"?>
<!-- Generator: Adobe Illustrator 18.0.0, SVG Export Plug-In . SVG Version: 6.00 Build 0)  -->
<!DOCTYPE svg PUBLIC "-//W3C//DTD SVG 1.1//EN" "http://www.w3.org/Graphics/SVG/1.1/DTD/svg11.dtd">
<svg version="1.1" id="Layer_1" xmlns="http://www.w3.org/2000/svg" xmlns:xlink="http://www.w3.org/1999/xlink" x="0px" y="0px"
	 viewBox="0 0 296 154" enable-background="new 0 0 296 154" xml:space="preserve">
<g>
	<path fill="#5E9732" d="M256.7,91.4l-9.2-4.2c-6.4-2.8-14.5-6.3-14.5-15.5c0-4.8,3.5-11,11-11c7.5,0,10.7,5.5,12.5,9
		c2,3.5,4.4,7.5,10.1,7.5c5.2,0,8.8-3.9,8.8-9c0-7.4-8.3-19.7-30.5-19.7c-23.4,0-32,14-32,27c0,17.1,14.7,24.3,20.2,26.9
		c4.6,2.2,15.4,7,18.3,9.5c2.5,2.1,6,5.1,6,11.3c0,6.8-5,11.4-11.6,11.4c-7.4,0-10.7-4.8-15.1-11c-2.6-3.5-5.2-7.2-10.3-7.2
		c-5.3,0-9.4,4.4-9.4,9.9c0,7.4,8.8,22.3,34.2,22.3c27.4,0,33.1-18.6,33.1-28.9C278.4,102,265.2,95.4,256.7,91.4z"/>
	<path fill="#5E9732" d="M206.1,32.4c0.4-3.7-1.1-6.3-2.6-8.7c-3.5-5-5.4-7.9-4.9-12.7c0.7-7,6.8-11.7,14.2-10.9
		c8.3,0.9,15.5,8.1,14.1,21.6c-2.2,20.6-22.1,36-29,35.2c-2.8-0.3-4.5-2.7-4.3-5.3c0.2-2,1-3,2.7-4.6
		C201.8,41.6,205.6,37.4,206.1,32.4z"/>
	<path fill="#EE3124" d="M196.3,71.6c-7.8-7.4-10.4-6-15.5-21.5c-2.5-7.6-7.1-16.6-14.9-19.3c-13.5-4.6-27.7,5.6-37,14.6
		C119,55,114.8,66,89.2,83.2c-7.2,4.8-15.8,8-24.2,9.6c-10.6,2-19.5-1.2-29.9-2C15.4,89.1,0,96.6,0,108.4c0,11.8,30.1,32,55.4,36.6
		c32.4,5.9,58.4,4.2,75.7-1c31.2-9.5,48.3-21.4,62.8-36C203.5,98.4,208.9,83.6,196.3,71.6z"/>
	<g>
		<path fill="#FFFFFF" d="M97.4,104c-6.6,2.7-17.6,3-18.5-0.9c-0.6-2.8,5-1.4,11.2-5c8.1-4.6,10.6-7,12.8-4.9
			C105.7,95.9,105.7,100.6,97.4,104z M144.2,72.9c-22.1,17-31.8,24.4-34.8,16.8c-1.6-4.2,5.4-6.9,11.5-12.8
			c7.7-7.5,16.8-19.2,25.3-26.1c9.9-8,16.1-5.7,18.3-0.9C167.8,57,156.5,63.4,144.2,72.9z"/>
	</g>
</g>
<g>
	<path fill="#5E9732" d="M288.8,143.4c0,2.9-2.4,5.3-5.4,5.3c-3,0-5.4-2.3-5.4-5.3c0-2.9,2.4-5.2,5.4-5.2
		C286.4,138.1,288.8,140.4,288.8,143.4z M279.3,143.4c0,2.3,1.8,4.2,4.1,4.2c2.3,0,4-1.9,4-4.2c0-2.3-1.7-4.2-4.1-4.2
		C281.1,139.2,279.3,141.1,279.3,143.4z M282.6,146.1h-1.2v-5.2c0.5-0.1,1.2-0.2,2-0.2c1,0,1.4,0.2,1.8,0.4c0.3,0.2,0.5,0.6,0.5,1.1
		c0,0.6-0.5,1.1-1.1,1.2v0.1c0.5,0.2,0.8,0.6,0.9,1.3c0.2,0.8,0.3,1.1,0.4,1.3h-1.3c-0.2-0.2-0.3-0.6-0.4-1.3
		c-0.1-0.5-0.4-0.8-1.1-0.8h-0.6L282.6,146.1L282.6,146.1L282.6,146.1z M282.6,143.2h0.6c0.7,0,1.2-0.2,1.2-0.8
		c0-0.5-0.4-0.8-1.1-0.8c-0.3,0-0.5,0-0.7,0.1V143.2z"/>
</g>
</svg>
